<svg aria-hidden="true" style="position: absolute; width: 0; height: 0; overflow: hidden;" version="1.1" xmlns="http://www.w3.org/2000/svg" xmlns:xlink="http://www.w3.org/1999/xlink">
<defs>
<symbol id="icon-close-modal" viewBox="0 0 20 20">
<path d="M14.348 14.849c-0.469 0.469-1.229 0.469-1.697 0l-2.651-3.030-2.651 3.029c-0.469 0.469-1.229 0.469-1.697 0-0.469-0.469-0.469-1.229 0-1.697l2.758-3.15-2.759-3.152c-0.469-0.469-0.469-1.228 0-1.697s1.228-0.469 1.697 0l2.652 3.031 2.651-3.031c0.469-0.469 1.228-0.469 1.697 0s0.469 1.229 0 1.697l-2.758 3.152 2.758 3.15c0.469 0.469 0.469 1.229 0 1.698z"></path>
</symbol>
<symbol id="icon-eye-off" viewBox="0 0 24 24">
<path d="M10.128 5.214c0.651-0.152 1.296-0.221 1.86-0.214 1.758 0 3.309 0.559 4.658 1.393 1.119 0.692 2.089 1.567 2.894 2.448 0.644 0.705 1.175 1.405 1.585 2.001 0.327 0.475 0.57 0.874 0.733 1.155-0.546 0.953-1.16 1.821-1.778 2.542-0.359 0.419-0.311 1.051 0.108 1.41s1.051 0.311 1.41-0.108c0.818-0.954 1.611-2.112 2.283-3.37 0.148-0.279 0.163-0.618 0.013-0.919 0 0-0.396-0.789-1.12-1.843-0.451-0.656-1.038-1.432-1.757-2.218-0.894-0.979-2.004-1.987-3.319-2.8-1.595-0.985-3.506-1.691-5.686-1.691-0.734-0.009-1.54 0.079-2.34 0.266-0.538 0.126-0.872 0.664-0.746 1.202s0.664 0.872 1.202 0.746zM10.027 11.442l2.531 2.531c-0.182 0.061-0.372 0.094-0.563 0.101-0.513 0.018-1.030-0.159-1.434-0.536s-0.617-0.88-0.635-1.393c-0.008-0.238 0.025-0.476 0.101-0.704zM5.983 7.397l2.553 2.553c-0.434 0.691-0.636 1.484-0.608 2.266 0.036 1.022 0.463 2.033 1.271 2.785s1.846 1.107 2.868 1.071c0.692-0.024 1.379-0.228 1.984-0.608l2.322 2.322c-1.378 0.799-2.895 1.196-4.384 1.214-1.734 0-3.285-0.559-4.634-1.393-1.119-0.692-2.089-1.567-2.894-2.448-0.644-0.705-1.175-1.405-1.585-2.001-0.326-0.475-0.57-0.873-0.732-1.154 1.050-1.822 2.376-3.379 3.841-4.607zM0.293 1.707l4.271 4.271c-1.731 1.479-3.269 3.358-4.445 5.549-0.148 0.279-0.164 0.619-0.013 0.92 0 0 0.396 0.789 1.12 1.843 0.451 0.656 1.038 1.432 1.757 2.218 0.894 0.979 2.004 1.987 3.319 2.8 1.595 0.986 3.506 1.692 5.71 1.692 1.993-0.024 4.019-0.601 5.815-1.759l4.466 4.466c0.391 0.391 1.024 0.391 1.414 0s0.391-1.024 0-1.414l-8.876-8.876c-0.002-0.002-0.005-0.005-0.007-0.007l-4.209-4.21c-0.008-0.007-0.016-0.016-0.024-0.024l-8.884-8.883c-0.391-0.391-1.024-0.391-1.414 0s-0.391 1.024 0 1.414z"></path>
</symbol>
<symbol id="icon-book-open" viewBox="0 0 24 24">
<path d="M21 4v13h-6c-0.728 0-1.412 0.195-2 0.535v-10.535c0-0.829 0.335-1.577 0.879-2.121s1.292-0.879 2.121-0.879zM11 17.535c-0.588-0.34-1.272-0.535-2-0.535h-6v-13h5c0.829 0 1.577 0.335 2.121 0.879s0.879 1.292 0.879 2.121zM22 2h-6c-1.38 0-2.632 0.561-3.536 1.464-0.167 0.167-0.322 0.346-0.464 0.536-0.142-0.19-0.297-0.369-0.464-0.536-0.904-0.903-2.156-1.464-3.536-1.464h-6c-0.552 0-1 0.448-1 1v15c0 0.552 0.448 1 1 1h7c0.553 0 1.051 0.223 1.414 0.586s0.586 0.861 0.586 1.414c0 0.552 0.448 1 1 1s1-0.448 1-1c0-0.553 0.223-1.051 0.586-1.414s0.861-0.586 1.414-0.586h7c0.552 0 1-0.448 1-1v-15c0-0.552-0.448-1-1-1z"></path>
</symbol>
<symbol id="icon-heart-normal" viewBox="0 0 28 28">
<path d="M26 9.312c0-4.391-2.969-5.313-5.469-5.313-2.328 0-4.953 2.516-5.766 3.484-0.375 0.453-1.156 0.453-1.531 0-0.812-0.969-3.437-3.484-5.766-3.484-2.5 0-5.469 0.922-5.469 5.313 0 2.859 2.891 5.516 2.922 5.547l9.078 8.75 9.063-8.734c0.047-0.047 2.938-2.703 2.938-5.563zM28 9.312c0 3.75-3.437 6.891-3.578 7.031l-9.734 9.375c-0.187 0.187-0.438 0.281-0.688 0.281s-0.5-0.094-0.688-0.281l-9.75-9.406c-0.125-0.109-3.563-3.25-3.563-7 0-4.578 2.797-7.313 7.469-7.313 2.734 0 5.297 2.156 6.531 3.375 1.234-1.219 3.797-3.375 6.531-3.375 4.672 0 7.469 2.734 7.469 7.313z"></path>
</symbol>
<symbol id="icon-logout-icon" viewBox="0 0 32 32">
<path d="M12 2.667c-0.736 0-1.333 0.597-1.333 1.333v0 6.667c0 0.736 0.597 1.333 1.333 1.333v0c0.736 0 1.333-0.597 1.333-1.333v0-5.333h10.667v21.333h-10.667v-5.333c0-0.736-0.597-1.333-1.333-1.333v0c-0.736 0-1.333 0.597-1.333 1.333v0 6.667c0 0.736 0.597 1.333 1.333 1.333h13.333c0.736-0 1.333-0.597 1.333-1.333v0-24c-0-0.736-0.597-1.333-1.333-1.333h-13.333zM9.372 12c-0.011-0-0.025-0.001-0.038-0.001-0.368 0-0.702 0.149-0.943 0.391v0l-2.667 2.667c-0.004 0.004-0.009 0.009-0.013 0.013l-0 0c-0.021 0.022-0.041 0.045-0.061 0.068l-0.002 0.002c-0.022 0.026-0.044 0.055-0.065 0.084l-0.003 0.004c-0.015 0.021-0.032 0.048-0.049 0.075l-0.003 0.006c-0.005 0.007-0.013 0.019-0.020 0.031l-0.003 0.006c-0.010 0.018-0.023 0.042-0.036 0.068l-0.003 0.008c-0.012 0.023-0.026 0.055-0.039 0.087l-0.003 0.009c0.001-0.004-0.001 0.001-0.002 0.006l-0.003 0.009c-0.008 0.019-0.019 0.048-0.029 0.077l-0.003 0.009c-0.002 0.007-0.006 0.022-0.009 0.038l-0.002 0.009c-0.003 0.009-0.007 0.027-0.011 0.046l-0.002 0.009c-0.002 0.008-0.006 0.024-0.009 0.041l-0.001 0.008c-0.003 0.011-0.006 0.030-0.009 0.050l-0.001 0.008c-0.003 0.027-0.006 0.060-0.008 0.093l-0 0.003c-0.001 0.017-0.002 0.037-0.003 0.058l-0 0.001c0 0.002-0 0.005-0 0.008s0 0.005 0 0.008v-0c0.001 0.017 0.002 0.030 0.003 0.044l-0-0.005c0.001 0.020 0.002 0.037 0.003 0.054l-0-0.004c0.001 0.027 0.003 0.050 0.006 0.074l-0-0.006c0.002 0.020 0.004 0.033 0.006 0.046l-0.001-0.007c0.006 0.042 0.012 0.076 0.020 0.11l-0.002-0.009c0.008 0.036 0.015 0.062 0.023 0.088l-0.003-0.009c0.008 0.029 0.014 0.048 0.021 0.067l-0.003-0.009c0.004 0.015 0.006 0.022 0.008 0.028l-0.002-0.009c0.015 0.041 0.028 0.072 0.043 0.102l-0.003-0.008c0.017 0.038 0.032 0.067 0.048 0.095l-0.003-0.007c0.009 0.020 0.015 0.032 0.022 0.044l-0.003-0.007c0.016 0.026 0.029 0.045 0.042 0.064l-0.003-0.004c0.009 0.015 0.015 0.024 0.021 0.034l-0.003-0.005c0.013 0.019 0.023 0.034 0.034 0.048l-0.003-0.004c0.010 0.012 0.017 0.021 0.025 0.031l-0.002-0.002c0.022 0.027 0.042 0.051 0.063 0.074l-0.001-0.001c0.010 0.011 0.018 0.020 0.027 0.029l-0.001-0.001c0.003 0.004 0.007 0.007 0.010 0.010l0 0c0.017 0.018 0.035 0.035 0.053 0.051l0.001 0.001 2.612 2.615c0.241 0.241 0.575 0.39 0.943 0.39s0.701-0.149 0.943-0.39v0c0.241-0.241 0.39-0.575 0.39-0.943s-0.149-0.701-0.39-0.943l-0.391-0.391h8.781c0.736 0 1.333-0.597 1.333-1.333v0c0-0.736-0.597-1.333-1.333-1.333v0h-8.781l0.391-0.391c0.241-0.241 0.39-0.575 0.39-0.943s-0.149-0.701-0.39-0.943v0c-0.232-0.232-0.55-0.38-0.902-0.391l-0.002-0z"></path>
</symbol>
<symbol id="icon-login-icon" viewBox="0 0 32 32">
<path fill="none" stroke="#8a8a89" style="stroke: var(--color1, #8a8a89)" stroke-linejoin="round" stroke-linecap="round" stroke-miterlimit="4" stroke-width="4.9231" d="M18.051 5.743l10.256 10.256M28.308 16l-10.256 10.256M28.308 16h-24.615"></path>
</symbol>
<symbol id="icon-ukraine-logo" viewBox="0 0 32 32">
<path fill="#ffda44" style="fill: var(--color2, #ffda44)" d="M16 32c8.837 0 16-7.163 16-16s-7.163-16-16-16c-8.837 0-16 7.163-16 16s7.163 16 16 16z"></path>
<path fill="#338af3" style="fill: var(--color3, #338af3)" d="M0 16c0-8.836 7.163-16 16-16s16 7.163 16 16z"></path>
</symbol>
<symbol id="icon-green-circle" viewBox="0 0 32 32">
<path fill="#fff" style="fill: var(--color4, #fff)" d="M32 16c0 8.837-7.163 16-16 16s-16-7.163-16-16c0-8.837 7.163-16 16-16s16 7.163 16 16z"></path>
<path fill="#38cd3e" style="fill: var(--color5, #38cd3e)" d="M26.667 16c0 5.891-4.776 10.667-10.667 10.667s-10.667-4.776-10.667-10.667c0-5.891 4.776-10.667 10.667-10.667s10.667 4.776 10.667 10.667z"></path>
</symbol>
<symbol id="icon-rating-star" viewBox="0 0 32 32">
<path fill="#ffc531" style="fill: var(--color6, #ffc531); stroke: var(--color6, #ffc531)" stroke="#ffc531" stroke-linejoin="miter" stroke-linecap="butt" stroke-miterlimit="4" stroke-width="2.4" d="M12.4 10.394l3.6-6.822 3.6 6.822c0.318 0.603 0.899 1.025 1.571 1.141l7.601 1.315-5.376 5.532c-0.475 0.489-0.697 1.171-0.6 1.846l1.098 7.635-6.922-3.404c-0.612-0.301-1.329-0.301-1.941 0l-6.922 3.404 1.098-7.635c0.097-0.675-0.125-1.357-0.6-1.846l-5.376-5.532 7.601-1.315c0.672-0.116 1.252-0.538 1.571-1.141zM29.035 12.579v0zM7.767 28.031c0 0 0 0 0 0h-0z"></path>
</symbol>
<symbol id="icon-default-avatar" viewBox="0 0 32 32">
<path d="M16 0c8.837 0 16 7.163 16 16s-7.163 16-16 16-16-7.163-16-16 7.163-16 16-16zM15.35 19.188c-4.341 0.309-7.785 3.684-7.95 7.859 2.373 1.85 5.358 2.953 8.601 2.953s6.227-1.102 8.6-2.952c-0.165-4.169-3.599-7.542-7.933-7.858l0 0c-0.215 0.019-0.432 0.029-0.652 0.029-0.224 0-0.447-0.010-0.666-0.030v-0zM16 2c-7.732 0-14 6.268-14 14 0 3.623 1.376 6.925 3.635 9.411 0.683-3.323 3.077-6.061 6.271-7.344l0.114-0.045-0.059-0.039c-1.937-1.305-3.21-3.519-3.21-6.030 0-4.013 3.253-7.266 7.266-7.266s7.266 3.253 7.266 7.266c0 2.516-1.279 4.733-3.222 6.037l-0.059 0.039 0.114 0.045c3.183 1.286 5.569 4.020 6.25 7.336 2.259-2.486 3.635-5.788 3.635-9.411 0-7.732-6.268-14-14-14zM16.016 6.645c-2.932 0-5.309 2.377-5.309 5.309s2.377 5.309 5.309 5.309c2.932 0 5.309-2.377 5.309-5.309s-2.377-5.309-5.309-5.309z"></path>
</symbol>
<symbol id="icon-hover-heart" viewBox="0 0 32 32">
<path fill="#f4c550" style="fill: var(--color7, #f4c550); stroke: var(--color7, #f4c550)" stroke="#f4c550" stroke-linejoin="round" stroke-linecap="round" stroke-miterlimit="4" stroke-width="1.2308" d="M27.787 6.147c-0.681-0.681-1.49-1.222-2.379-1.591s-1.844-0.559-2.807-0.559-1.917 0.19-2.807 0.559c-0.89 0.369-1.699 0.909-2.38 1.591l-1.413 1.413-1.413-1.413c-1.376-1.376-3.241-2.148-5.187-2.148s-3.811 0.773-5.187 2.148c-1.376 1.376-2.148 3.241-2.148 5.187s0.773 3.811 2.148 5.187l11.787 11.787 11.787-11.787c0.681-0.681 1.222-1.49 1.591-2.379s0.559-1.844 0.559-2.807-0.19-1.917-0.559-2.807c-0.369-0.89-0.909-1.699-1.591-2.38z"></path>
</symbol>
<symbol id="icon-logo" viewBox="0 0 152 32">
<path fill="#ffda44" style="fill: var(--color1, #ffda44)" d="M16 32c8.837 0 16-7.163 16-16s-7.163-16-16-16c-8.837 0-16 7.163-16 16s7.163 16 16 16z"></path>
<path fill="#338af3" style="fill: var(--color2, #338af3)" d="M0 16c0-8.836 7.163-16 16-16s16 7.163 16 16z"></path>
<path fill="#121417" style="fill: var(--color3, #121417)" d="M52.973 21.779v2.221h-8.158v-2.221h8.159zM45.596 7.75v16.25h-2.801v-16.25h2.801zM59.737 24.223c-0.893 0-1.7-0.145-2.422-0.435-0.714-0.298-1.324-0.711-1.83-1.239-0.498-0.528-0.882-1.15-1.15-1.864s-0.402-1.484-0.402-2.31v-0.446c0-0.945 0.138-1.801 0.413-2.567s0.658-1.421 1.15-1.964c0.491-0.551 1.071-0.971 1.741-1.261s1.395-0.435 2.176-0.435c0.863 0 1.618 0.145 2.266 0.435s1.183 0.699 1.607 1.228c0.432 0.521 0.751 1.142 0.96 1.864 0.216 0.722 0.324 1.518 0.324 2.388v1.149h-9.33v-1.931h6.674v-0.212c-0.015-0.484-0.112-0.938-0.29-1.362-0.171-0.424-0.435-0.766-0.792-1.027s-0.833-0.391-1.429-0.391c-0.447 0-0.845 0.097-1.194 0.29-0.342 0.186-0.629 0.458-0.859 0.815s-0.409 0.789-0.536 1.295c-0.119 0.498-0.178 1.060-0.178 1.685v0.446c0 0.528 0.071 1.019 0.212 1.473 0.149 0.446 0.365 0.837 0.647 1.172s0.625 0.599 1.027 0.792c0.402 0.186 0.859 0.279 1.373 0.279 0.647 0 1.224-0.13 1.73-0.391s0.945-0.629 1.317-1.105l1.417 1.373c-0.26 0.379-0.599 0.744-1.016 1.094-0.417 0.342-0.926 0.621-1.529 0.837-0.595 0.216-1.287 0.324-2.076 0.324zM73.019 21.578v-5.759c0-0.432-0.078-0.804-0.234-1.116s-0.394-0.554-0.714-0.725c-0.312-0.171-0.707-0.257-1.183-0.257-0.439 0-0.819 0.074-1.138 0.223s-0.569 0.35-0.748 0.603c-0.179 0.253-0.268 0.539-0.268 0.859h-2.678c0-0.476 0.115-0.938 0.346-1.384s0.566-0.844 1.004-1.194 0.964-0.625 1.574-0.826c0.61-0.201 1.295-0.301 2.053-0.301 0.908 0 1.711 0.152 2.411 0.458 0.707 0.305 1.261 0.766 1.663 1.384 0.409 0.61 0.614 1.376 0.614 2.299v5.368c0 0.551 0.037 1.045 0.112 1.484 0.082 0.432 0.197 0.807 0.346 1.127v0.178h-2.757c-0.126-0.29-0.227-0.659-0.301-1.105-0.067-0.454-0.1-0.893-0.1-1.317zM73.409 16.656l0.022 1.663h-1.931c-0.499 0-0.938 0.048-1.317 0.145-0.379 0.089-0.696 0.223-0.949 0.402s-0.443 0.394-0.569 0.647c-0.126 0.253-0.19 0.539-0.19 0.859s0.074 0.614 0.223 0.882c0.149 0.26 0.365 0.465 0.647 0.614 0.29 0.149 0.64 0.223 1.049 0.223 0.551 0 1.031-0.112 1.44-0.335 0.417-0.231 0.744-0.51 0.982-0.837 0.238-0.335 0.365-0.651 0.38-0.949l0.871 1.194c-0.089 0.305-0.242 0.632-0.458 0.982s-0.499 0.685-0.848 1.004c-0.342 0.312-0.755 0.569-1.239 0.77-0.476 0.201-1.027 0.301-1.652 0.301-0.789 0-1.492-0.156-2.109-0.469-0.618-0.32-1.101-0.748-1.451-1.284-0.35-0.543-0.525-1.157-0.525-1.841 0-0.64 0.119-1.205 0.357-1.696 0.246-0.498 0.603-0.915 1.071-1.25 0.476-0.335 1.057-0.588 1.741-0.759 0.685-0.179 1.466-0.268 2.344-0.268h2.109zM80.776 14.223v9.777h-2.69v-12.076h2.567l0.123 2.299zM84.47 11.846l-0.022 2.5c-0.164-0.030-0.342-0.052-0.536-0.067-0.186-0.015-0.372-0.022-0.558-0.022-0.461 0-0.867 0.067-1.217 0.201-0.35 0.127-0.644 0.312-0.882 0.558-0.231 0.238-0.409 0.528-0.536 0.87s-0.201 0.726-0.223 1.149l-0.614 0.045c0-0.759 0.074-1.462 0.223-2.109s0.372-1.216 0.67-1.708c0.305-0.491 0.685-0.874 1.138-1.15 0.461-0.275 0.993-0.413 1.596-0.413 0.164 0 0.338 0.015 0.525 0.045 0.193 0.030 0.338 0.063 0.435 0.1zM88.366 14.502v9.498h-2.69v-12.076h2.534l0.156 2.578zM87.886 17.516l-0.871-0.011c0.007-0.856 0.126-1.641 0.357-2.355 0.238-0.714 0.566-1.328 0.982-1.842 0.424-0.513 0.93-0.908 1.518-1.183 0.588-0.283 1.243-0.424 1.964-0.424 0.58 0 1.105 0.082 1.574 0.245 0.476 0.156 0.882 0.413 1.216 0.77 0.342 0.357 0.603 0.822 0.781 1.395 0.179 0.565 0.268 1.261 0.268 2.087v7.801h-2.701v-7.812c0-0.58-0.085-1.038-0.257-1.373-0.164-0.342-0.406-0.584-0.725-0.726-0.313-0.149-0.703-0.223-1.172-0.223-0.461 0-0.874 0.097-1.239 0.29s-0.673 0.458-0.926 0.792c-0.246 0.335-0.435 0.722-0.569 1.161s-0.201 0.908-0.201 1.406zM108.411 21.779v2.221h-8.159v-2.221h8.159zM101.034 7.75v16.25h-2.801v-16.25h2.801zM112.73 11.924v12.076h-2.701v-12.076h2.701zM109.851 8.754c0-0.409 0.134-0.748 0.402-1.016 0.275-0.275 0.655-0.413 1.138-0.413 0.476 0 0.852 0.138 1.127 0.413 0.275 0.268 0.413 0.606 0.413 1.016 0 0.402-0.138 0.737-0.413 1.004s-0.651 0.402-1.127 0.402c-0.484 0-0.863-0.134-1.138-0.402-0.268-0.268-0.402-0.603-0.402-1.004zM117.887 14.502v9.498h-2.689v-12.076h2.533l0.157 2.578zM117.407 17.516l-0.87-0.011c0.007-0.856 0.126-1.641 0.357-2.355 0.238-0.714 0.566-1.328 0.982-1.842 0.425-0.513 0.93-0.908 1.519-1.183 0.587-0.283 1.242-0.424 1.963-0.424 0.581 0 1.105 0.082 1.574 0.245 0.477 0.156 0.882 0.413 1.217 0.77 0.342 0.357 0.602 0.822 0.781 1.395 0.179 0.565 0.269 1.261 0.269 2.087v7.801h-2.702v-7.812c0-0.58-0.085-1.038-0.256-1.373-0.163-0.342-0.406-0.584-0.726-0.726-0.312-0.149-0.703-0.223-1.171-0.223-0.462 0-0.874 0.097-1.239 0.29s-0.674 0.458-0.927 0.792c-0.246 0.335-0.435 0.722-0.569 1.161s-0.201 0.908-0.201 1.406zM135.221 11.924h2.443v11.741c0 1.086-0.231 2.009-0.691 2.768-0.462 0.759-1.105 1.336-1.931 1.73-0.825 0.402-1.782 0.603-2.867 0.603-0.462 0-0.975-0.067-1.541-0.201-0.558-0.134-1.102-0.35-1.63-0.647-0.521-0.29-0.955-0.673-1.305-1.149l1.261-1.585c0.432 0.513 0.907 0.889 1.429 1.127s1.067 0.357 1.641 0.357c0.617 0 1.142-0.115 1.574-0.346 0.439-0.223 0.777-0.554 1.015-0.993 0.239-0.439 0.358-0.975 0.358-1.607v-9.063l0.246-2.734zM127.017 18.096v-0.234c0-0.915 0.112-1.748 0.335-2.5 0.223-0.759 0.543-1.41 0.96-1.953 0.416-0.55 0.922-0.971 1.518-1.261 0.595-0.298 1.269-0.446 2.019-0.446 0.782 0 1.448 0.141 1.998 0.424 0.559 0.283 1.024 0.688 1.395 1.216 0.373 0.521 0.663 1.146 0.871 1.875 0.216 0.722 0.376 1.525 0.48 2.411v0.748c-0.097 0.863-0.261 1.652-0.491 2.366s-0.536 1.332-0.915 1.853c-0.379 0.521-0.848 0.923-1.406 1.205-0.551 0.283-1.202 0.424-1.953 0.424-0.737 0-1.402-0.153-1.998-0.458-0.589-0.305-1.094-0.733-1.518-1.283-0.417-0.551-0.737-1.198-0.96-1.942-0.223-0.752-0.335-1.566-0.335-2.444zM129.706 17.862v0.234c0 0.551 0.053 1.064 0.157 1.54 0.112 0.476 0.279 0.897 0.503 1.261 0.23 0.357 0.52 0.64 0.87 0.848 0.358 0.201 0.778 0.301 1.262 0.301 0.632 0 1.15-0.134 1.551-0.402 0.409-0.268 0.722-0.629 0.938-1.083 0.223-0.461 0.379-0.975 0.469-1.54v-2.020c-0.045-0.439-0.138-0.848-0.279-1.228-0.135-0.379-0.317-0.71-0.547-0.993-0.231-0.29-0.521-0.513-0.871-0.67-0.35-0.164-0.762-0.246-1.239-0.246-0.483 0-0.904 0.104-1.261 0.312-0.358 0.208-0.651 0.495-0.882 0.859-0.223 0.365-0.39 0.789-0.502 1.272s-0.168 1.001-0.168 1.551zM139.483 18.096v-0.257c0-0.87 0.127-1.678 0.379-2.422 0.254-0.751 0.618-1.402 1.095-1.953 0.483-0.558 1.071-0.989 1.762-1.295 0.699-0.312 1.489-0.469 2.367-0.469 0.886 0 1.674 0.156 2.366 0.469 0.699 0.305 1.291 0.737 1.775 1.295 0.483 0.551 0.851 1.202 1.105 1.953 0.253 0.744 0.379 1.551 0.379 2.422v0.257c0 0.87-0.127 1.678-0.379 2.422-0.254 0.744-0.622 1.395-1.105 1.953-0.483 0.551-1.072 0.982-1.763 1.295-0.693 0.305-1.477 0.458-2.355 0.458-0.885 0-1.678-0.153-2.377-0.458-0.691-0.312-1.28-0.744-1.763-1.295-0.483-0.558-0.851-1.209-1.105-1.953-0.253-0.744-0.379-1.551-0.379-2.422zM142.174 17.839v0.257c0 0.543 0.056 1.057 0.167 1.54 0.112 0.484 0.287 0.908 0.525 1.272 0.239 0.365 0.544 0.651 0.915 0.859 0.373 0.208 0.815 0.312 1.328 0.312 0.499 0 0.93-0.104 1.295-0.312 0.373-0.208 0.678-0.495 0.915-0.859s0.413-0.789 0.525-1.272c0.119-0.484 0.178-0.997 0.178-1.54v-0.257c0-0.536-0.059-1.042-0.178-1.518-0.112-0.484-0.29-0.911-0.536-1.283-0.238-0.372-0.543-0.662-0.915-0.87-0.365-0.216-0.8-0.324-1.305-0.324-0.506 0-0.945 0.108-1.318 0.324-0.365 0.208-0.665 0.498-0.904 0.87-0.238 0.372-0.413 0.8-0.525 1.283-0.111 0.476-0.167 0.982-0.167 1.518z"></path>
</symbol>
<symbol id="icon-login-1" viewBox="0 0 32 32">
<path fill="none" stroke="currentColor" stroke-linejoin="round" stroke-linecap="round" stroke-miterlimit="4" stroke-width="3.2" d="M20 4h1.6c2.24 0 3.36 0 4.216 0.436 0.753 0.383 1.364 0.995 1.748 1.748 0.436 0.856 0.436 1.976 0.436 4.216v11.2c0 2.24 0 3.36-0.436 4.216-0.384 0.753-0.995 1.364-1.748 1.748-0.856 0.436-1.976 0.436-4.216 0.436h-1.6"></path>
<path fill="none" stroke="currentColor" stroke-linejoin="round" stroke-linecap="round" stroke-miterlimit="4" stroke-width="3.2" d="M13.333 9.333l6.667 6.667M20 16l-6.667 6.667M20 16h-16"></path>
</symbol>
<symbol id="icon-theme" viewBox="0 0 32 32">
<path d="M16 29.333c7.364 0 13.333-5.97 13.333-13.333s-5.97-13.333-13.333-13.333c-7.364 0-13.333 5.97-13.333 13.333s5.97 13.333 13.333 13.333zM16 27.333v-22.667c6.259 0 11.333 5.074 11.333 11.333s-5.074 11.333-11.333 11.333z"></path>
</symbol>
<symbol id="icon-pointing-left" viewBox="0 0 32 32">
<path d="M31.497 11.125h-2.158c-0.246 0-0.486-0.070-0.694-0.202-0.209-0.132-0.374-0.32-0.479-0.543-0.134-0.285-0.359-0.667-0.67-1.134-0.508-0.764-1.216-1.374-2.049-1.764l-5.026-2.356c-1.036-0.487-2.268-0.32-3.138 0.424l-0.942 0.804c-0.437 0.373-1.014 0.542-1.583 0.465-0.107-0.015-0.215-0.022-0.32-0.022-1.289 0-2.338 1.051-2.338 2.342 0 0.252 0.026 0.501 0.077 0.743h-9.57c-0.696 0-1.351 0.271-1.843 0.764s-0.763 1.148-0.763 1.843c0 1.437 1.169 2.606 2.606 2.607l8.316-0c-0.345 0.442-0.55 0.998-0.55 1.6 0 1.246 0.879 2.291 2.050 2.547-0.374 0.451-0.599 1.030-0.599 1.66 0 1.141 0.736 2.112 1.759 2.465-0.323 0.391-0.521 0.886-0.529 1.423-0.010 0.634 0.232 1.231 0.68 1.68 0.439 0.439 1.023 0.681 1.644 0.681h9.203c1.015 0 2.024-0.144 2.999-0.429 1.273-0.372 2.592-0.561 3.918-0.561 0.278 0 0.503-0.225 0.503-0.503v-14.029c0-0.278-0.225-0.503-0.503-0.503zM30.994 25.163c-1.252 0.042-2.493 0.241-3.697 0.593-0.883 0.258-1.797 0.389-2.717 0.389h-9.203c-0.352 0-0.683-0.137-0.932-0.386-0.254-0.255-0.391-0.594-0.386-0.954 0.011-0.715 0.621-1.297 1.359-1.297 0.278 0 0.503-0.225 0.503-0.503s-0.225-0.503-0.503-0.503l-0.988-0c-0.883 0-1.6-0.718-1.6-1.6s0.718-1.6 1.6-1.6c0.278 0 0.503-0.225 0.503-0.503s-0.225-0.503-0.503-0.503h-1.451c-0.882 0-1.6-0.718-1.6-1.6 0-0.88 0.713-1.596 1.592-1.6h1.548c0.278 0 0.503-0.225 0.503-0.503s-0.225-0.503-0.503-0.503l-11.911 0c-0.882 0-1.6-0.718-1.6-1.6 0-0.427 0.166-0.829 0.469-1.132s0.704-0.469 1.132-0.469h18.14c0.278 0 0.503-0.225 0.503-0.503s-0.225-0.503-0.503-0.503h-7.531c-0.072-0.239-0.109-0.488-0.109-0.743 0-0.737 0.598-1.336 1.332-1.336 0.060 0 0.122 0.004 0.184 0.013 0.853 0.116 1.717-0.138 2.372-0.696l0.942-0.804c0.571-0.488 1.378-0.597 2.057-0.278l5.027 2.356c0.666 0.312 1.232 0.8 1.638 1.41 0.279 0.42 0.486 0.768 0.597 1.005 0.187 0.397 0.481 0.73 0.85 0.964s0.795 0.359 1.233 0.359h1.655v13.032z"></path>
</symbol>
<symbol id="icon-chevron-down" viewBox="0 0 32 32">
<path stroke-linejoin="round" stroke-linecap="round" stroke-miterlimit="4" stroke-width="3.2" d="M8 12l8 8 8-8"></path>
</symbol>
</defs>
</svg>
